<svg width="2092" height="335" viewBox="0 0 2092 335" fill="none" xmlns="http://www.w3.org/2000/svg">
<g clip-path="url(#clip0_1715_653)">
<path d="M0 302.546H208.168L232.048 278.943L252.84 299.494L276.968 190.429L298.542 319.313C298.542 319.313 314.97 217.817 314.97 224.939C314.97 232.061 327.28 306.128 327.28 306.128C327.28 306.128 341.65 268.565 342.679 271.617C343.708 274.67 352.931 300.023 352.931 300.023L365.241 254.851L374.464 309.139L398.056 247.241L412.425 299.006L423.706 286.838L439.105 287.855C439.105 287.855 438.076 293.919 451.415 282.768C464.755 271.577 461.667 270.6 461.667 260.426C461.667 250.252 472.949 24.9999 472.949 24.9999L503.746 224.898C503.746 224.898 523.262 281.71 523.262 278.658C523.262 275.606 545.865 99.0666 545.865 99.0666L555.088 254.322L575.633 126.455L585.885 245.165L608.489 310.116C608.489 310.116 616.682 308.081 622.858 312.151C628.993 316.22 648.508 313.168 650.567 310.116C652.626 307.064 661.848 307.064 664.936 307.064C668.024 307.064 698.821 319.232 699.85 315.162C700.88 311.093 714.22 232.956 714.22 232.956L726.53 319.191H799.406C799.406 319.191 805.54 278.617 807.599 275.565C809.658 272.513 811.716 269.461 809.658 272.513C807.599 275.565 820.939 319.191 820.939 319.191L859.929 314.104L869.152 296.849C869.152 296.849 875.287 321.226 878.375 319.191C881.421 317.156 897.849 315.366 902.996 319.313C908.101 323.261 928.646 324.278 928.646 324.278L1045.5 302.5H1253.67L1277.55 278.943L1298.34 299.494L1322.47 190.429L1344.04 319.313C1344.04 319.313 1360.47 217.817 1360.47 224.939C1360.47 232.061 1372.78 306.128 1372.78 306.128C1372.78 306.128 1387.15 268.565 1388.18 271.617C1389.21 274.67 1398.43 300.023 1398.43 300.023L1410.74 254.851L1419.96 309.139L1443.56 247.241L1457.93 299.006L1469.21 286.838L1484.6 287.855C1484.6 287.855 1483.58 293.919 1496.92 282.768C1510.26 271.577 1507.17 270.6 1507.17 260.426C1507.17 250.252 1518.45 25 1518.45 25L1549.25 224.899C1549.25 224.899 1568.76 281.71 1568.76 278.658C1568.76 275.606 1591.37 99.0666 1591.37 99.0666L1600.59 254.322L1621.13 126.455L1631.39 245.165L1653.99 310.116C1653.99 310.116 1662.18 308.081 1668.36 312.151C1674.49 316.22 1694.01 313.168 1696.07 310.116C1698.13 307.064 1707.35 307.064 1710.44 307.064C1713.52 307.064 1744.32 319.232 1745.35 315.162C1746.38 311.093 1759.72 232.956 1759.72 232.956L1772.03 319.191H1844.91C1844.91 319.191 1851.04 278.617 1853.1 275.565L1855.16 272.513C1853.1 275.565 1866.44 319.191 1866.44 319.191L1905.43 314.104L1914.65 296.849C1914.65 296.849 1920.79 321.226 1923.87 319.191C1926.92 317.156 1943.35 315.366 1948.5 319.313C1953.6 323.261 1974.15 324.278 1974.15 324.278L2091 302.5" stroke="#4283FB" stroke-width="5" stroke-miterlimit="10"/>
</g>
<defs>
<clipPath id="clip0_1715_653">
<rect width="2092" height="335" fill="white"/>
</clipPath>
</defs>
</svg>
