<svg width="20" height="20" viewBox="0 0 20 20" fill="none" xmlns="http://www.w3.org/2000/svg">
<path fill-rule="evenodd" clip-rule="evenodd" d="M10.0003 1.66669C5.39783 1.66669 1.66699 5.39752 1.66699 10C1.66699 11.5125 2.07116 12.9334 2.77616 14.1567C2.92033 14.4067 2.94449 14.71 2.82366 14.9709L2.11199 16.5017C2.01183 16.6922 1.96256 16.9054 1.96896 17.1205C1.97536 17.3357 2.03722 17.5455 2.14853 17.7298C2.25984 17.914 2.41684 18.0664 2.60432 18.1721C2.7918 18.2779 3.00341 18.3334 3.21866 18.3334H10.0003C14.6028 18.3334 18.3337 14.6025 18.3337 10C18.3337 5.39752 14.6028 1.66669 10.0003 1.66669ZM7.50033 7.50002C7.27931 7.50002 7.06735 7.58782 6.91107 7.7441C6.75479 7.90038 6.66699 8.11234 6.66699 8.33335C6.66699 8.55437 6.75479 8.76633 6.91107 8.92261C7.06735 9.07889 7.27931 9.16669 7.50033 9.16669H9.16699C9.38801 9.16669 9.59997 9.07889 9.75625 8.92261C9.91253 8.76633 10.0003 8.55437 10.0003 8.33335C10.0003 8.11234 9.91253 7.90038 9.75625 7.7441C9.59997 7.58782 9.38801 7.50002 9.16699 7.50002H7.50033ZM7.50033 10.8334C7.27931 10.8334 7.06735 10.9212 6.91107 11.0774C6.75479 11.2337 6.66699 11.4457 6.66699 11.6667C6.66699 11.8877 6.75479 12.0997 6.91107 12.2559C7.06735 12.4122 7.27931 12.5 7.50033 12.5H12.5003C12.7213 12.5 12.9333 12.4122 13.0896 12.2559C13.2459 12.0997 13.3337 11.8877 13.3337 11.6667C13.3337 11.4457 13.2459 11.2337 13.0896 11.0774C12.9333 10.9212 12.7213 10.8334 12.5003 10.8334H7.50033Z" fill="#612CFF"/>
</svg>
