<svg width="24" height="24" viewBox="0 0 24 24" fill="none" xmlns="http://www.w3.org/2000/svg">
<path d="M19.3125 2.25H4.6875C3.84273 2.25198 3.03313 2.58844 2.43578 3.18579C1.83844 3.78313 1.50198 4.59273 1.5 5.4375V15.18C1.5 16.8825 2.8425 18.2775 4.5225 18.36V20.5125C4.5225 20.9925 4.7925 21.42 5.22 21.6225C5.3925 21.7125 5.58 21.75 5.76 21.75C6.03 21.75 6.3 21.66 6.525 21.48L8.6325 19.815C9.82542 18.8754 11.299 18.3631 12.8175 18.36H19.3125C21.0675 18.36 22.5 16.935 22.5 15.1725V5.4375C22.498 4.59273 22.1616 3.78313 21.5642 3.18579C20.9669 2.58844 20.1573 2.25198 19.3125 2.25ZM7.5 9.42C7.0875 9.42 6.75 9.0825 6.75 8.67C6.75 8.2575 7.0875 7.92 7.5 7.92H16.5C16.9125 7.92 17.25 8.2575 17.25 8.67C17.25 9.0825 16.9125 9.42 16.5 9.42H7.5ZM12.75 11.9475C12.75 12.36 12.4125 12.6975 12 12.6975H7.5C7.0875 12.6975 6.75 12.36 6.75 11.9475C6.75 11.5275 7.0875 11.1975 7.5 11.1975H12C12.4125 11.1975 12.75 11.5275 12.75 11.9475Z" fill="#ADADAD"/>
<path d="M19.3125 2.25H4.6875C3.84273 2.25198 3.03313 2.58844 2.43578 3.18579C1.83844 3.78313 1.50198 4.59273 1.5 5.4375V15.18C1.5 16.8825 2.8425 18.2775 4.5225 18.36V20.5125C4.5225 20.9925 4.7925 21.42 5.22 21.6225C5.3925 21.7125 5.58 21.75 5.76 21.75C6.03 21.75 6.3 21.66 6.525 21.48L8.6325 19.815C9.82542 18.8754 11.299 18.3631 12.8175 18.36H19.3125C21.0675 18.36 22.5 16.935 22.5 15.1725V5.4375C22.498 4.59273 22.1616 3.78313 21.5642 3.18579C20.9669 2.58844 20.1573 2.25198 19.3125 2.25ZM7.5 9.42C7.0875 9.42 6.75 9.0825 6.75 8.67C6.75 8.2575 7.0875 7.92 7.5 7.92H16.5C16.9125 7.92 17.25 8.2575 17.25 8.67C17.25 9.0825 16.9125 9.42 16.5 9.42H7.5ZM12.75 11.9475C12.75 12.36 12.4125 12.6975 12 12.6975H7.5C7.0875 12.6975 6.75 12.36 6.75 11.9475C6.75 11.5275 7.0875 11.1975 7.5 11.1975H12C12.4125 11.1975 12.75 11.5275 12.75 11.9475Z" fill="url(#paint0_linear_1567_9908)"/>
<defs>
<linearGradient id="paint0_linear_1567_9908" x1="-0.527587" y1="-12.8625" x2="27.298" y2="21.8761" gradientUnits="userSpaceOnUse">
<stop stop-color="#05B6DE"/>
<stop offset="1" stop-color="#97FFFF"/>
</linearGradient>
</defs>
</svg>
