<svg width="20" height="20" viewBox="0 0 20 20" fill="none" xmlns="http://www.w3.org/2000/svg">
<path d="M6.27863 2.01026C6.76754 1.95695 7.2402 2.11786 7.71162 2.34416C8.1864 2.57213 8.76538 2.9215 9.48196 3.35214L15.0626 6.70528L16.0325 7.29549C16.3203 7.47543 16.5727 7.6409 16.7862 7.79791C17.2101 8.10973 17.5803 8.45522 17.7802 8.92268L17.8314 9.05201C18.072 9.70559 18.0552 10.4345 17.7802 11.0774L17.6974 11.2475C17.4868 11.6309 17.1571 11.9293 16.7862 12.2021C16.3592 12.5162 15.7793 12.864 15.0626 13.2948L9.48196 16.6479C8.76526 17.0786 8.18645 17.4279 7.71162 17.6559C7.29902 17.854 6.88531 18.0019 6.46086 18L6.27863 17.989C5.60638 17.9155 4.99125 17.5669 4.56778 17.0234L4.4857 16.9121C4.19669 16.498 4.09415 15.9916 4.04669 15.4534C3.99893 14.9114 4 14.2149 4 13.3536V6.64649C4 5.78511 3.99895 5.08867 4.04669 4.54666C4.08821 4.0756 4.17162 3.62881 4.38555 3.24711L4.4857 3.08799C4.88307 2.51869 5.48055 2.13899 6.14459 2.02907L6.27863 2.01026Z" fill="url(#paint0_linear_1793_1424)"/>
<defs>
<linearGradient id="paint0_linear_1793_1424" x1="13.928" y1="2.08137" x2="11.1452" y2="18.1304" gradientUnits="userSpaceOnUse">
<stop offset="0.25" stop-color="white"/>
<stop offset="1" stop-color="#09D8C6"/>
</linearGradient>
</defs>
</svg>
