<svg width="32" height="32" viewBox="0 0 32 32" fill="none" xmlns="http://www.w3.org/2000/svg">
<path fill-rule="evenodd" clip-rule="evenodd" d="M16.0003 1.33333C23.7158 1.33333 29.9703 7.58793 29.9704 15.3034C29.9704 20.6103 27.0109 25.2251 22.6527 27.5898C19.4225 29.489 15.6602 30.582 11.6423 30.582C9.16641 30.582 6.78668 30.1681 4.56934 29.4062C3.65674 29.0923 3.47213 27.9055 4.00033 27.0977C4.47474 26.3723 4.83013 25.5617 5.03809 24.694C5.12649 24.325 5.01511 23.9421 4.78809 23.638C3.04989 21.3103 2.03027 18.4343 2.03027 15.3034C2.03034 7.58793 8.28485 1.33333 16.0003 1.33333ZM9.34538 14.0417C8.24081 14.0417 7.34538 14.9371 7.34538 16.0417C7.34538 17.1462 8.24081 18.0417 9.34538 18.0417C10.4498 18.0415 11.3454 17.1461 11.3454 16.0417C11.3454 14.9372 10.4498 14.0418 9.34538 14.0417ZM16.0003 14.0417C14.8958 14.0417 14.0003 14.9371 14.0003 16.0417C14.0003 17.1462 14.8958 18.0417 16.0003 18.0417C17.1049 18.0417 18.0003 17.1462 18.0003 16.0417C18.0003 14.9371 17.1049 14.0417 16.0003 14.0417ZM22.6787 14.0417C21.5741 14.0417 20.6787 14.9371 20.6787 16.0417C20.6787 17.1462 21.5741 18.0417 22.6787 18.0417C23.7831 18.0415 24.6787 17.1461 24.6787 16.0417C24.6787 14.9372 23.7831 14.0418 22.6787 14.0417Z" fill="white"/>
</svg>
