<svg width="40" height="40" viewBox="0 0 40 40" fill="none" xmlns="http://www.w3.org/2000/svg">
<path fill-rule="evenodd" clip-rule="evenodd" d="M20.0002 3.33331C10.7952 3.33331 3.3335 10.795 3.3335 20C3.3335 23.025 4.14183 25.8666 5.55183 28.3133C5.84016 28.8133 5.8885 29.42 5.64683 29.9416L4.2235 33.0033C4.02317 33.3844 3.92464 33.8107 3.93744 34.241C3.95024 34.6713 4.07394 35.091 4.29656 35.4595C4.51919 35.8279 4.83318 36.1327 5.20815 36.3442C5.58311 36.5557 6.00633 36.6667 6.43683 36.6666H20.0002C29.2052 36.6666 36.6668 29.205 36.6668 20C36.6668 10.795 29.2052 3.33331 20.0002 3.33331ZM15.0002 15C14.5581 15 14.1342 15.1756 13.8217 15.4881C13.5091 15.8007 13.3335 16.2246 13.3335 16.6666C13.3335 17.1087 13.5091 17.5326 13.8217 17.8452C14.1342 18.1577 14.5581 18.3333 15.0002 18.3333H18.3335C18.7755 18.3333 19.1994 18.1577 19.512 17.8452C19.8246 17.5326 20.0002 17.1087 20.0002 16.6666C20.0002 16.2246 19.8246 15.8007 19.512 15.4881C19.1994 15.1756 18.7755 15 18.3335 15H15.0002ZM15.0002 21.6666C14.5581 21.6666 14.1342 21.8422 13.8217 22.1548C13.5091 22.4674 13.3335 22.8913 13.3335 23.3333C13.3335 23.7753 13.5091 24.1993 13.8217 24.5118C14.1342 24.8244 14.5581 25 15.0002 25H25.0002C25.4422 25 25.8661 24.8244 26.1787 24.5118C26.4912 24.1993 26.6668 23.7753 26.6668 23.3333C26.6668 22.8913 26.4912 22.4674 26.1787 22.1548C25.8661 21.8422 25.4422 21.6666 25.0002 21.6666H15.0002Z" fill="white"/>
</svg>
