<svg width="32" height="32" viewBox="0 0 32 32" fill="none" xmlns="http://www.w3.org/2000/svg">
<path d="M28 2H4C2.346 2 1 3.346 1 5V21C1 22.654 2.346 24 4 24H7V29C7.00032 29.1883 7.05373 29.3726 7.15409 29.5319C7.25445 29.6912 7.3977 29.819 7.56738 29.9005C7.73707 29.9821 7.92631 30.0141 8.11339 29.993C8.30047 29.9718 8.47779 29.8984 8.625 29.781L15.851 24H28C29.654 24 31 22.654 31 21V5C31 3.346 29.654 2 28 2ZM16 16H8C7.73478 16 7.48043 15.8946 7.29289 15.7071C7.10536 15.5196 7 15.2652 7 15C7 14.7348 7.10536 14.4804 7.29289 14.2929C7.48043 14.1054 7.73478 14 8 14H16C16.2652 14 16.5196 14.1054 16.7071 14.2929C16.8946 14.4804 17 14.7348 17 15C17 15.2652 16.8946 15.5196 16.7071 15.7071C16.5196 15.8946 16.2652 16 16 16ZM24 12H8C7.73478 12 7.48043 11.8946 7.29289 11.7071C7.10536 11.5196 7 11.2652 7 11C7 10.7348 7.10536 10.4804 7.29289 10.2929C7.48043 10.1054 7.73478 10 8 10H24C24.2652 10 24.5196 10.1054 24.7071 10.2929C24.8946 10.4804 25 10.7348 25 11C25 11.2652 24.8946 11.5196 24.7071 11.7071C24.5196 11.8946 24.2652 12 24 12Z" fill="#06082C"/>
</svg>
