<svg width="24" height="24" viewBox="0 0 24 24" fill="none" xmlns="http://www.w3.org/2000/svg">
<path d="M20.4134 3.76153C19.3781 2.62561 17.9575 2 16.413 2C15.2585 2 14.2013 2.36923 13.2704 3.09735C12.8008 3.46484 12.3752 3.91453 12 4.4393C11.6249 3.91465 11.1992 3.46484 10.7294 3.09735C9.79875 2.36923 8.74148 2 7.58699 2C6.0425 2 4.62176 2.62561 3.58645 3.76153C2.56352 4.88417 2 6.41789 2 8.08031C2 9.79134 2.63035 11.3577 3.98363 13.0096C5.19426 14.4873 6.93422 15.9873 8.94914 17.7243C9.63719 18.3175 10.4171 18.9899 11.2268 19.7061C11.4408 19.8957 11.7156 20.0001 12 20C12.2846 20 12.5592 19.8956 12.7729 19.7064C13.5826 18.99 14.363 18.3173 15.0513 17.7238C17.0659 15.9871 18.8059 14.4873 20.0165 13.0094C21.3698 11.3577 22 9.79138 22 8.08015C22 6.41789 21.4365 4.88417 20.4134 3.76153Z" fill="#ADADAD"/>
<path d="M20.4134 3.76153C19.3781 2.62561 17.9575 2 16.413 2C15.2585 2 14.2013 2.36923 13.2704 3.09735C12.8008 3.46484 12.3752 3.91453 12 4.4393C11.6249 3.91465 11.1992 3.46484 10.7294 3.09735C9.79875 2.36923 8.74148 2 7.58699 2C6.0425 2 4.62176 2.62561 3.58645 3.76153C2.56352 4.88417 2 6.41789 2 8.08031C2 9.79134 2.63035 11.3577 3.98363 13.0096C5.19426 14.4873 6.93422 15.9873 8.94914 17.7243C9.63719 18.3175 10.4171 18.9899 11.2268 19.7061C11.4408 19.8957 11.7156 20.0001 12 20C12.2846 20 12.5592 19.8956 12.7729 19.7064C13.5826 18.99 14.363 18.3173 15.0513 17.7238C17.0659 15.9871 18.8059 14.4873 20.0165 13.0094C21.3698 11.3577 22 9.79138 22 8.08015C22 6.41789 21.4365 4.88417 20.4134 3.76153Z" fill="url(#paint0_linear_1567_9903)"/>
<defs>
<linearGradient id="paint0_linear_1567_9903" x1="0.0689646" y1="-11.95" x2="25.5677" y2="20.8942" gradientUnits="userSpaceOnUse">
<stop stop-color="#05B6DE"/>
<stop offset="1" stop-color="#97FFFF"/>
</linearGradient>
</defs>
</svg>
