<svg width="24" height="34" viewBox="0 0 24 34" fill="none" xmlns="http://www.w3.org/2000/svg">
<path fill-rule="evenodd" clip-rule="evenodd" d="M19.0324 19.0394C18.9568 19.7376 18.3619 20.2786 17.6445 20.274L17.5029 20.2664C16.8511 20.1958 16.3357 19.6734 16.2738 19.0207L16.2689 18.8792L16.2827 18.045C16.2985 15.6724 14.3713 13.7454 11.9987 13.7609L11.7825 13.7671C9.55471 13.8936 7.78623 15.7324 7.77121 17.9884L7.75532 18.9724L7.74635 19.1139C7.67087 19.8123 7.07721 20.3545 6.35976 20.35L6.2182 20.341C5.56617 20.2707 5.05034 19.7488 4.98836 19.096L4.98214 18.9544L4.99802 17.9704C5.02274 14.2455 7.94337 11.2095 11.6216 11.0002L11.98 10.9884C15.8976 10.9627 19.0803 14.1454 19.0545 18.063L19.04 18.8978L19.0324 19.0394Z" fill="url(#paint0_linear_1793_1417)"/>
<path fill-rule="evenodd" clip-rule="evenodd" d="M18.9903 26.3873C18.7812 30.0658 15.7452 32.9863 12.0201 33.0109L11.6555 33.004C8.02796 32.8426 5.11474 29.9292 4.95314 26.3017L4.94554 25.9364L4.96073 25.1023C4.96581 24.337 5.59044 23.7205 6.35561 23.7253C7.12076 23.7306 7.73751 24.355 7.73254 25.1202L7.71804 25.9551L7.72149 26.1753C7.81919 28.3722 9.58366 30.1363 11.7804 30.2343L12.0021 30.2391C14.2578 30.2241 16.0965 28.4553 16.2233 26.2278L16.2302 26.011L16.2461 25.027C16.251 24.3097 16.7998 23.7236 17.4988 23.657L17.641 23.6501C18.4063 23.6551 19.0228 24.2797 19.0179 25.0449L19.0021 26.029L18.9903 26.3873Z" fill="url(#paint1_linear_1793_1417)"/>
<path fill-rule="evenodd" clip-rule="evenodd" d="M13.3556 25.4703C13.2797 26.1684 12.6863 26.7097 11.969 26.705L11.8274 26.6974C11.1757 26.6268 10.6602 26.1043 10.5983 25.4517L10.592 25.3101L10.6362 18.6713C10.6411 17.9536 11.1907 17.3674 11.8902 17.3013L12.0318 17.2951C12.797 17.3004 13.4124 17.9247 13.4073 18.69L13.3638 25.3281L13.3556 25.4703Z" fill="url(#paint2_linear_1793_1417)"/>
<defs>
<linearGradient id="paint0_linear_1793_1417" x1="18.9829" y1="26.6055" x2="4.5415" y2="25.2018" gradientUnits="userSpaceOnUse">
<stop offset="0.25" stop-color="white"/>
<stop offset="1" stop-color="#09D8C6"/>
</linearGradient>
<linearGradient id="paint1_linear_1793_1417" x1="18.9829" y1="26.6055" x2="4.5415" y2="25.2018" gradientUnits="userSpaceOnUse">
<stop offset="0.25" stop-color="white"/>
<stop offset="1" stop-color="#09D8C6"/>
</linearGradient>
<linearGradient id="paint2_linear_1793_1417" x1="18.9829" y1="26.6055" x2="4.5415" y2="25.2018" gradientUnits="userSpaceOnUse">
<stop offset="0.25" stop-color="white"/>
<stop offset="1" stop-color="#09D8C6"/>
</linearGradient>
</defs>
</svg>
