<svg width="20" height="20" viewBox="0 0 20 20" fill="none" xmlns="http://www.w3.org/2000/svg">
<path d="M17.0115 3.96794C16.1487 3.02134 14.9649 2.5 13.6778 2.5C12.7158 2.5 11.8347 2.8077 11.059 3.41446C10.6676 3.7207 10.313 4.09544 10.0003 4.53275C9.68776 4.09554 9.33301 3.7207 8.9415 3.41446C8.16595 2.8077 7.28489 2.5 6.32282 2.5C5.03574 2.5 3.85179 3.02134 2.98903 3.96794C2.13659 4.90347 1.66699 6.18157 1.66699 7.56692C1.66699 8.99278 2.19229 10.298 3.32002 11.6746C4.32887 12.906 5.77884 14.1561 7.45794 15.6036C8.03131 16.0979 8.68122 16.6582 9.35602 17.2551C9.53432 17.413 9.7633 17.5001 10.0003 17.5C10.2375 17.5 10.4663 17.413 10.6444 17.2553C11.3192 16.6583 11.9695 16.0978 12.5431 15.6032C14.2219 14.1559 15.6719 12.906 16.6808 11.6745C17.8085 10.2981 18.3337 8.99281 18.3337 7.56679C18.3337 6.18157 17.8641 4.90347 17.0115 3.96794Z" fill="#ADADAD"/>
<path d="M17.0115 3.96794C16.1487 3.02134 14.9649 2.5 13.6778 2.5C12.7158 2.5 11.8347 2.8077 11.059 3.41446C10.6676 3.7207 10.313 4.09544 10.0003 4.53275C9.68776 4.09554 9.33301 3.7207 8.9415 3.41446C8.16595 2.8077 7.28489 2.5 6.32282 2.5C5.03574 2.5 3.85179 3.02134 2.98903 3.96794C2.13659 4.90347 1.66699 6.18157 1.66699 7.56692C1.66699 8.99278 2.19229 10.298 3.32002 11.6746C4.32887 12.906 5.77884 14.1561 7.45794 15.6036C8.03131 16.0979 8.68122 16.6582 9.35602 17.2551C9.53432 17.413 9.7633 17.5001 10.0003 17.5C10.2375 17.5 10.4663 17.413 10.6444 17.2553C11.3192 16.6583 11.9695 16.0978 12.5431 15.6032C14.2219 14.1559 15.6719 12.906 16.6808 11.6745C17.8085 10.2981 18.3337 8.99281 18.3337 7.56679C18.3337 6.18157 17.8641 4.90347 17.0115 3.96794Z" fill="#612CFF"/>
</svg>
