<svg width="20" height="20" viewBox="0 0 20 20" fill="none" xmlns="http://www.w3.org/2000/svg">
<path fill-rule="evenodd" clip-rule="evenodd" d="M9.99984 1.66666C5.39734 1.66666 1.6665 5.39749 1.6665 9.99999C1.6665 11.5125 2.07067 12.9333 2.77567 14.1567C2.91984 14.4067 2.944 14.71 2.82317 14.9708L2.1115 16.5017C2.01134 16.6922 1.96208 16.9053 1.96848 17.1205C1.97488 17.3356 2.03673 17.5455 2.14804 17.7297C2.25935 17.914 2.41635 18.0663 2.60383 18.1721C2.79131 18.2778 3.00292 18.3334 3.21817 18.3333H9.99984C14.6023 18.3333 18.3332 14.6025 18.3332 9.99999C18.3332 5.39749 14.6023 1.66666 9.99984 1.66666ZM7.49984 7.49999C7.27882 7.49999 7.06686 7.58779 6.91058 7.74407C6.7543 7.90035 6.6665 8.11231 6.6665 8.33332C6.6665 8.55434 6.7543 8.7663 6.91058 8.92258C7.06686 9.07886 7.27882 9.16666 7.49984 9.16666H9.1665C9.38752 9.16666 9.59948 9.07886 9.75576 8.92258C9.91204 8.7663 9.99984 8.55434 9.99984 8.33332C9.99984 8.11231 9.91204 7.90035 9.75576 7.74407C9.59948 7.58779 9.38752 7.49999 9.1665 7.49999H7.49984ZM7.49984 10.8333C7.27882 10.8333 7.06686 10.9211 6.91058 11.0774C6.7543 11.2337 6.6665 11.4456 6.6665 11.6667C6.6665 11.8877 6.7543 12.0996 6.91058 12.2559C7.06686 12.4122 7.27882 12.5 7.49984 12.5H12.4998C12.7209 12.5 12.9328 12.4122 13.0891 12.2559C13.2454 12.0996 13.3332 11.8877 13.3332 11.6667C13.3332 11.4456 13.2454 11.2337 13.0891 11.0774C12.9328 10.9211 12.7209 10.8333 12.4998 10.8333H7.49984Z" fill="#1C66EF"/>
</svg>
