<svg width="20" height="20" viewBox="0 0 20 20" fill="none" xmlns="http://www.w3.org/2000/svg">
<path d="M17.011 3.96794C16.1482 3.02134 14.9644 2.5 13.6773 2.5C12.7153 2.5 11.8342 2.8077 11.0585 3.41446C10.6672 3.7207 10.3125 4.09544 9.99984 4.53275C9.68727 4.09554 9.33252 3.7207 8.94101 3.41446C8.16546 2.8077 7.28441 2.5 6.32233 2.5C5.03525 2.5 3.8513 3.02134 2.98854 3.96794C2.1361 4.90347 1.6665 6.18157 1.6665 7.56692C1.6665 8.99278 2.1918 10.298 3.31953 11.6746C4.32838 12.906 5.77835 14.1561 7.45745 15.6036C8.03083 16.0979 8.68073 16.6582 9.35553 17.2551C9.53383 17.413 9.76281 17.5001 9.99984 17.5C10.237 17.5 10.4659 17.413 10.6439 17.2553C11.3187 16.6583 11.969 16.0978 12.5426 15.6032C14.2214 14.1559 15.6714 12.906 16.6803 11.6745C17.808 10.2981 18.3332 8.99281 18.3332 7.56679C18.3332 6.18157 17.8636 4.90347 17.011 3.96794Z" fill="#ADADAD"/>
<path d="M17.011 3.96794C16.1482 3.02134 14.9644 2.5 13.6773 2.5C12.7153 2.5 11.8342 2.8077 11.0585 3.41446C10.6672 3.7207 10.3125 4.09544 9.99984 4.53275C9.68727 4.09554 9.33252 3.7207 8.94101 3.41446C8.16546 2.8077 7.28441 2.5 6.32233 2.5C5.03525 2.5 3.8513 3.02134 2.98854 3.96794C2.1361 4.90347 1.6665 6.18157 1.6665 7.56692C1.6665 8.99278 2.1918 10.298 3.31953 11.6746C4.32838 12.906 5.77835 14.1561 7.45745 15.6036C8.03083 16.0979 8.68073 16.6582 9.35553 17.2551C9.53383 17.413 9.76281 17.5001 9.99984 17.5C10.237 17.5 10.4659 17.413 10.6439 17.2553C11.3187 16.6583 11.969 16.0978 12.5426 15.6032C14.2214 14.1559 15.6714 12.906 16.6803 11.6745C17.808 10.2981 18.3332 8.99281 18.3332 7.56679C18.3332 6.18157 17.8636 4.90347 17.011 3.96794Z" fill="#1C66EF"/>
</svg>
