<svg width="166" height="25" viewBox="0 0 166 25" fill="none" xmlns="http://www.w3.org/2000/svg">
<path d="M55.0763 21.4356C52.3218 21.4356 49.8338 20.5873 47.6124 18.8907L49.4117 16.2491C51.3221 17.645 53.2436 18.343 55.1762 18.343C56.0426 18.343 56.709 18.1819 57.1755 17.8598C57.6642 17.5162 57.9086 17.0437 57.9086 16.4424C57.9086 16.1417 57.8197 15.884 57.642 15.6692C57.4865 15.433 57.1977 15.2182 56.7757 15.025C56.3536 14.8317 55.9982 14.6921 55.7094 14.6062C55.4206 14.5203 54.943 14.3807 54.2766 14.1874L53.9767 14.0907C53.3547 13.9189 52.8216 13.7579 52.3773 13.6075C51.9552 13.4357 51.4776 13.2102 50.9445 12.931C50.4114 12.6518 49.9782 12.3512 49.645 12.029C49.3118 11.6854 49.0341 11.2559 48.812 10.7405C48.5898 10.225 48.4787 9.64519 48.4787 9.00091C48.4787 7.43315 49.0674 6.1768 50.2448 5.23185C51.4443 4.2869 52.9437 3.81443 54.7431 3.81443C57.0311 3.81443 59.1859 4.45871 61.2073 5.74728L59.6079 8.51769C57.7864 7.44389 56.1314 6.90699 54.6431 6.90699C53.8656 6.90699 53.2547 7.06806 52.8105 7.3902C52.3884 7.71234 52.1774 8.14186 52.1774 8.67877C52.1774 9.04386 52.3662 9.37674 52.7438 9.6774C53.1437 9.97807 53.5324 10.2036 53.9101 10.3539C54.3099 10.4828 54.943 10.6868 55.8093 10.966C55.8538 10.9874 55.9093 11.0089 55.9759 11.0304C56.0426 11.0519 56.0981 11.0626 56.1426 11.0626C56.92 11.2989 57.5753 11.5351 58.1085 11.7713C58.6416 11.9861 59.197 12.2868 59.7745 12.6733C60.3743 13.0599 60.8297 13.5431 61.1407 14.123C61.4517 14.6813 61.6072 15.3364 61.6072 16.088C61.6072 17.8061 60.9963 19.1269 59.7745 20.0504C58.5528 20.9738 56.9867 21.4356 55.0763 21.4356Z" fill="white"/>
<path d="M72.1699 21.5C69.5709 21.5 67.405 20.641 65.6723 18.9229C63.9396 17.2048 63.0733 15.1109 63.0733 12.6411C63.0733 10.1928 63.9396 8.09891 65.6723 6.35935C67.4272 4.61978 69.6042 3.75 72.2032 3.75C75.0466 3.75 77.3902 4.72716 79.2339 6.68149L76.7349 9.29084C75.3354 7.87341 73.8137 7.1647 72.1699 7.1647C70.726 7.1647 69.5153 7.7016 68.5379 8.77541C67.5827 9.82774 67.1051 11.1163 67.1051 12.6411C67.1051 14.1874 67.5938 15.4867 68.5713 16.539C69.5709 17.5913 70.8371 18.1175 72.3698 18.1175C73.9914 18.1175 75.5131 17.4088 76.9348 15.9914L79.3672 18.3108C78.412 19.3417 77.368 20.1363 76.2351 20.6946C75.1244 21.2315 73.7693 21.5 72.1699 21.5Z" fill="white"/>
<path d="M96.1706 21.1134H92.1721V19.0195C90.7504 20.6517 88.8511 21.4678 86.4742 21.4678C84.7193 21.4678 83.231 21.0061 82.0092 20.0826C80.8096 19.1376 80.2099 17.8276 80.2099 16.1525C80.2099 14.327 80.8652 12.9418 82.1758 11.9968C83.4864 11.0519 85.208 10.5794 87.3405 10.5794C89.051 10.5794 90.6726 10.8156 92.2054 11.2881V10.966C92.2054 9.78479 91.8278 8.88279 91.0725 8.25998C90.3394 7.63717 89.2732 7.32577 87.8737 7.32577C86.2743 7.32577 84.5971 7.68013 82.8422 8.38884L81.7426 5.26407C83.9196 4.31912 86.1521 3.84664 88.4401 3.84664C90.9947 3.84664 92.9162 4.46945 94.2047 5.71506C95.5153 6.96068 96.1706 8.73246 96.1706 11.0304V21.1134ZM92.272 14.9605V13.9941C91.0725 13.5431 89.7285 13.3176 88.2402 13.3176C86.974 13.3176 85.9855 13.5538 85.2747 14.0263C84.5638 14.4988 84.2084 15.1645 84.2084 16.0236C84.2084 16.7967 84.5305 17.4088 85.1747 17.8598C85.8189 18.3108 86.6297 18.5363 87.6071 18.5363C88.9622 18.5363 90.0729 18.2034 90.9392 17.5377C91.8278 16.8719 92.272 16.0129 92.272 14.9605Z" fill="white"/>
<path d="M99.2999 21.1134V4.10436H103.332V6.74592C104.731 4.74864 106.564 3.75 108.83 3.75C110.784 3.75 112.317 4.34059 113.428 5.52178C114.539 6.70296 115.094 8.2922 115.094 10.2895V21.1134H111.062V11.4492C111.062 10.1177 110.729 9.09755 110.063 8.38884C109.418 7.65865 108.496 7.29356 107.297 7.29356C106.12 7.29356 105.164 7.66939 104.431 8.42105C103.698 9.17272 103.332 10.2036 103.332 11.5136V21.1134H99.2999Z" fill="white"/>
<path d="M118.297 21.1134V4.10436H122.329V6.74592C123.728 4.74864 125.561 3.75 127.826 3.75C129.781 3.75 131.314 4.34059 132.425 5.52178C133.535 6.70296 134.091 8.2922 134.091 10.2895V21.1134H130.059V11.4492C130.059 10.1177 129.726 9.09755 129.059 8.38884C128.415 7.65865 127.493 7.29356 126.294 7.29356C125.116 7.29356 124.161 7.66939 123.428 8.42105C122.695 9.17272 122.329 10.2036 122.329 11.5136V21.1134H118.297Z" fill="white"/>
<path d="M145.357 21.5C142.78 21.5 140.626 20.6732 138.893 19.0195C137.182 17.3659 136.327 15.229 136.327 12.6089C136.327 10.1391 137.138 8.04522 138.76 6.32713C140.381 4.60904 142.436 3.75 144.924 3.75C147.59 3.75 149.656 4.63052 151.122 6.39156C152.61 8.13113 153.354 10.3002 153.354 12.8988C153.354 13.3713 153.332 13.7364 153.288 13.9941H140.359C140.581 15.3471 141.148 16.4102 142.058 17.1833C142.969 17.935 144.091 18.3108 145.424 18.3108C147.156 18.3108 148.745 17.6343 150.189 16.2813L152.554 18.3108C150.733 20.4369 148.334 21.5 145.357 21.5ZM140.326 11.417H149.356C149.222 10.1069 148.767 9.03312 147.99 8.19555C147.212 7.35799 146.179 6.9392 144.891 6.9392C143.669 6.9392 142.647 7.35799 141.825 8.19555C141.003 9.01165 140.503 10.0855 140.326 11.417Z" fill="white"/>
<path d="M155.737 21.1134V4.10436H159.769V7.93784C161.013 5.03857 163.09 3.65336 166 3.78221V7.90563H165.767C163.945 7.90563 162.49 8.48548 161.402 9.64519C160.313 10.7834 159.769 12.4478 159.769 14.6384V21.1134H155.737Z" fill="white"/>
<path d="M6.43411 0H0V6.25H6.43411V25H12.8682V6.25H6.43411V0Z" fill="url(#paint0_linear_1536_5312)"/>
<path d="M18.0155 0H30.8837V6.25H24.4496V18.75H30.8837V25H18.0155V0Z" fill="url(#paint1_linear_1536_5312)"/>
<path d="M30.8837 6.25H37.3178V18.75H30.8837V6.25Z" fill="url(#paint2_linear_1536_5312)"/>
<defs>
<linearGradient id="paint0_linear_1536_5312" x1="-3.6031" y1="-19.375" x2="28.0697" y2="35.4332" gradientUnits="userSpaceOnUse">
<stop stop-color="#05B6DE"/>
<stop offset="1" stop-color="#97FFFF"/>
</linearGradient>
<linearGradient id="paint1_linear_1536_5312" x1="-3.6031" y1="-19.375" x2="28.0697" y2="35.4332" gradientUnits="userSpaceOnUse">
<stop stop-color="#05B6DE"/>
<stop offset="1" stop-color="#97FFFF"/>
</linearGradient>
<linearGradient id="paint2_linear_1536_5312" x1="-3.6031" y1="-19.375" x2="28.0697" y2="35.4332" gradientUnits="userSpaceOnUse">
<stop stop-color="#05B6DE"/>
<stop offset="1" stop-color="#97FFFF"/>
</linearGradient>
</defs>
</svg>
