<svg width="140" height="55" viewBox="0 0 140 55" fill="none" xmlns="http://www.w3.org/2000/svg">
<path d="M85.207 43.8026H85.965C93.6106 43.8026 97.6312 40.0077 97.6312 40.0077V44.1472H104.684V29.7581H86.5253V34.4612H95.1266C95.1266 34.4612 93.0834 37.4777 86.7559 37.4777C80.6922 37.4777 77.9453 34.4612 77.9453 31.3799V31.0231C77.9453 27.8444 80.2308 25.055 86.8219 25.055C93.7425 25.055 94.5993 27.4876 94.7641 28.1039L104.519 28.0715C104.387 24.6982 102.344 18.7625 87.3162 18.7625H86.0309C71.5635 18.7625 68.6635 25.5415 68.6635 30.7312V31.6394C68.6635 36.7317 71.7942 43.8026 85.207 43.8026Z" fill="black"/>
<path d="M49.7369 24.9722L54.5931 14.7157L70.1643 44.1472H59.3046L49.7369 24.9722Z" fill="black"/>
<path d="M21.7568 36.1974H9.96601V44.1472H0V18.7625H21.7568C31.407 18.7625 34.1441 22.4815 34.1441 27.1558V27.7017C34.1441 32.3078 31.3017 36.1974 21.7568 36.1974ZM9.96601 25.1087V29.8512H20.5637C22.8446 29.8512 23.8623 28.93 23.8623 27.5312V27.4288C23.8623 25.9617 22.9148 25.1087 20.5637 25.1087H9.96601Z" fill="black"/>
<path d="M108.436 18.7625H139.487V24.9722H118.184V28.1453H139.487V34.3209H118.184V37.801H139.766V44.1472H108.436V18.7625Z" fill="black"/>
<path d="M35.2698 55H25.1391L52.0604 0H61.6283L35.2698 55Z" fill="url(#paint0_linear_1695_5221)"/>
<path d="M57.2793 40.0529H42.4391L45.4767 33.7068H54.1017L57.2793 40.0529Z" fill="url(#paint1_linear_1695_5221)"/>
<path d="M44.2748 54.5315L46.4909 48.3104H47.6561V49.5262H47.2516L45.673 54.5315H44.2748ZM45.4664 53.0226L45.7918 52.0482H48.7465L49.0719 53.0226H45.4664ZM48.8697 54.5315L47.2911 49.5262V48.3104H48.0518L50.2635 54.5315H48.8697Z" fill="black"/>
<path d="M56.8423 54.5315V48.3104H57.9943L61.4108 53.1002L60.3291 52.3414H60.9051V48.3104H62.2198V54.5315H61.0766L57.6557 49.7202L58.733 50.4746H58.157V54.5315H56.8423Z" fill="black"/>
<path d="M68.803 54.5315L71.0191 48.3104H72.1843V49.5262H71.7798L70.2012 54.5315H68.803ZM69.9946 53.0226L70.32 52.0482H73.2747L73.6001 53.0226H69.9946ZM73.3979 54.5315L71.8193 49.5262V48.3104H72.58L74.7917 54.5315H73.3979Z" fill="black"/>
<path d="M81.3705 54.5315V48.3104H82.6984V53.458H85.4817V54.5315H81.3705Z" fill="black"/>
<path d="M93.0102 54.5315V52.2077L90.7985 48.3104H92.2363L93.6566 50.9618H93.6961L95.112 48.3104H96.5454L94.3381 52.2077V54.5315H93.0102Z" fill="black"/>
<path d="M104.65 54.5315V49.3839H102.803V48.3104H107.825V49.3839H105.978V54.5315H104.65Z" fill="black"/>
<path d="M114.496 54.5315V48.3104H115.824V54.5315H114.496Z" fill="black"/>
<path d="M125.617 54.6479C125.001 54.6479 124.467 54.5186 124.016 54.2599C123.565 53.9984 123.216 53.6276 122.97 53.1476C122.726 52.6647 122.605 52.0885 122.605 51.4188V51.4145C122.605 50.7448 122.726 50.17 122.97 49.69C123.216 49.21 123.565 48.8407 124.016 48.582C124.467 48.3233 125.001 48.194 125.617 48.194C126.13 48.194 126.585 48.2917 126.984 48.4871C127.386 48.6826 127.708 48.9513 127.951 49.2933C128.198 49.6325 128.341 50.0219 128.382 50.4617L128.387 50.5048H127.094L127.076 50.4401C127.029 50.2102 126.94 50.0104 126.808 49.8409C126.679 49.6684 126.514 49.5348 126.311 49.4399C126.112 49.3451 125.88 49.2977 125.617 49.2977C125.279 49.2977 124.986 49.3839 124.737 49.5563C124.491 49.7259 124.3 49.9688 124.166 50.2849C124.031 50.5982 123.963 50.9747 123.963 51.4145V51.4188C123.963 51.8557 124.031 52.2336 124.166 52.5527C124.3 52.8717 124.492 53.1174 124.742 53.2899C124.991 53.4594 125.284 53.5442 125.621 53.5442C125.876 53.5442 126.103 53.4982 126.302 53.4063C126.502 53.3143 126.669 53.1821 126.804 53.0096C126.939 52.8372 127.034 52.6303 127.09 52.3888L127.098 52.35H128.391L128.387 52.3931C128.346 52.8329 128.202 53.2223 127.956 53.5615C127.71 53.9006 127.386 54.1665 126.984 54.3591C126.585 54.5516 126.13 54.6479 125.617 54.6479Z" fill="black"/>
<path d="M137.445 54.6479C136.941 54.6479 136.501 54.5761 136.126 54.4324C135.754 54.2858 135.461 54.0774 135.247 53.8072C135.036 53.5342 134.917 53.208 134.891 52.8286L134.886 52.7596H136.144L136.153 52.807C136.179 52.9651 136.251 53.1031 136.368 53.2209C136.488 53.3359 136.642 53.4264 136.83 53.4925C137.02 53.5586 137.236 53.5917 137.476 53.5917C137.722 53.5917 137.935 53.5586 138.114 53.4925C138.292 53.4264 138.43 53.333 138.527 53.2123C138.624 53.0916 138.672 52.9522 138.672 52.7941V52.7898C138.672 52.5828 138.587 52.419 138.417 52.2983C138.25 52.1776 137.97 52.0784 137.577 52.0008L136.905 51.8672C136.274 51.7436 135.802 51.5338 135.489 51.2377C135.175 50.9417 135.018 50.5594 135.018 50.0909V50.0866C135.021 49.7072 135.125 49.3767 135.33 49.095C135.539 48.8105 135.824 48.5892 136.188 48.4311C136.554 48.273 136.97 48.194 137.437 48.194C137.929 48.194 138.353 48.2701 138.707 48.4225C139.062 48.5719 139.339 48.7832 139.538 49.0562C139.741 49.3293 139.852 49.6454 139.872 50.0047L139.877 50.0823H138.624L138.619 50.0306C138.596 49.8667 138.533 49.7273 138.43 49.6124C138.328 49.4974 138.191 49.4083 138.021 49.3451C137.854 49.2819 137.659 49.2502 137.437 49.2502C137.214 49.2502 137.02 49.2833 136.856 49.3494C136.695 49.4126 136.569 49.5003 136.478 49.6124C136.39 49.7245 136.346 49.8552 136.346 50.0047V50.009C136.346 50.2073 136.431 50.3668 136.601 50.4876C136.771 50.6083 137.039 50.706 137.406 50.7807L138.074 50.9144C138.742 51.0437 139.231 51.2492 139.538 51.5309C139.846 51.8097 140 52.1934 140 52.682V52.6863C140 53.0858 139.897 53.4336 139.692 53.7296C139.49 54.0228 139.198 54.2498 138.817 54.4108C138.436 54.5689 137.979 54.6479 137.445 54.6479Z" fill="black"/>
<defs>
<linearGradient id="paint0_linear_1695_5221" x1="70" y1="0" x2="70" y2="55" gradientUnits="userSpaceOnUse">
<stop stop-color="#518EFF"/>
<stop offset="1" stop-color="#1863EE"/>
</linearGradient>
<linearGradient id="paint1_linear_1695_5221" x1="70" y1="0" x2="70" y2="55" gradientUnits="userSpaceOnUse">
<stop stop-color="#518EFF"/>
<stop offset="1" stop-color="#1863EE"/>
</linearGradient>
</defs>
</svg>
