<svg width="170" height="52" viewBox="0 0 170 52" fill="none" xmlns="http://www.w3.org/2000/svg">
<path fill-rule="evenodd" clip-rule="evenodd" d="M75.3039 8.80385C76.0908 8.61769 76.9131 8.51898 77.7594 8.51897C81.8271 8.51897 85.3404 10.8 87.0263 14.1119L82.2843 16.4609C81.8735 15.6208 81.223 14.9134 80.419 14.4224C79.6478 13.9515 78.7356 13.6794 77.7594 13.6794C76.3929 13.6794 75.1521 14.2126 74.2474 15.0778C73.3247 15.9605 72.7516 17.1888 72.7516 18.5497C72.7516 20.2895 73.6885 21.8127 75.0952 22.6738C75.8674 23.1465 76.7812 23.4196 77.7594 23.4196C78.7357 23.4196 79.6478 23.1476 80.419 22.6766C81.1384 22.2374 81.7344 21.6248 82.1464 20.899L86.889 23.2483C85.5572 25.6822 83.2235 27.5219 80.419 28.245V38.238L66.2207 52L57.1411 43.1995C56.3586 43.3835 55.5412 43.4807 54.7 43.4807C48.9885 43.4807 44.3682 38.9848 44.3682 33.4503C44.3682 28.8134 47.6114 24.9054 52.0224 23.7598V13.762L66.2207 0L75.3039 8.80385ZM57.3465 15.8996V23.7517C61.7733 24.887 65.0319 28.8025 65.0319 33.4503C65.0319 36.2372 63.8603 38.761 61.9677 40.5798L66.2207 44.702L75.0952 36.1004V28.2436C70.6775 27.1024 67.4275 23.1912 67.4275 18.5497C67.4275 15.7672 68.5954 13.247 70.4827 11.4288L66.2207 7.29799L57.3465 15.8996ZM54.7 28.5801C53.7162 28.5801 52.7974 28.8566 52.0224 29.3343C50.623 30.1968 49.6923 31.7159 49.6923 33.4503C49.6923 35.1847 50.623 36.7038 52.0224 37.5664C52.7974 38.0441 53.7162 38.3206 54.7 38.3206C56.062 38.3206 57.2991 37.7908 58.203 36.9305C59.131 36.0473 59.7078 34.8155 59.7078 33.4503C59.7078 31.7031 58.7631 30.1744 57.3465 29.3153C56.5781 28.8493 55.6708 28.5801 54.7 28.5801Z" fill="url(#paint0_linear_1830_5607)"/>
<path d="M0.607521 43.4286V24.96H5.98316V43.4286H0.607521ZM3.29534 22.0343C2.3994 22.0343 1.62619 21.76 0.975715 21.2114C0.325238 20.6507 0 19.907 0 18.9806C0 18.0419 0.325238 17.2983 0.975715 16.7497C1.62619 16.1889 2.3994 15.9086 3.29534 15.9086C4.19128 15.9086 4.96449 16.1889 5.61497 16.7497C6.26544 17.2983 6.59068 18.0419 6.59068 18.9806C6.59068 19.907 6.26544 20.6507 5.61497 21.2114C4.96449 21.76 4.19128 22.0343 3.29534 22.0343Z" fill="white"/>
<path d="M9.73937 43.4286V24.96H15.115V27.0446C15.8268 26.1181 16.6676 25.4476 17.6371 25.0331C18.619 24.6186 19.6438 24.4114 20.7116 24.4114C22.4421 24.4114 23.8658 24.7527 24.9826 25.4354C26.1117 26.1059 26.9463 26.9775 27.4863 28.0503C28.0386 29.123 28.3148 30.2507 28.3148 31.4331V43.4286H22.9391V33.0971C22.9391 31.9268 22.6078 30.9943 21.945 30.2994C21.2945 29.6046 20.3495 29.2571 19.1099 29.2571C18.3244 29.2571 17.631 29.4339 17.0296 29.7874C16.4282 30.1287 15.9557 30.6103 15.6121 31.232C15.2807 31.8537 15.115 32.5729 15.115 33.3897V43.4286H9.73937Z" fill="white"/>
<path d="M33.3606 43.4286V22.8388C33.3606 20.9127 33.9313 19.3828 35.0727 18.2491C36.2264 17.1154 37.8526 16.5486 39.9513 16.5486C40.6509 16.5486 41.3197 16.6217 41.9579 16.768C42.5961 16.9143 43.2098 17.1337 43.7989 17.4263L42.9705 21.5223C42.6146 21.3272 42.2709 21.1931 41.9395 21.12C41.6082 21.0468 41.2952 21.0103 41.0006 21.0103C40.3011 21.0103 39.7426 21.1748 39.3254 21.504C38.9203 21.8331 38.7178 22.3695 38.7178 23.1131V24.96H43.3571V29.2388H38.7178V43.4286H33.3606ZM29.9548 29.2388V24.96H33.8945V29.2388H29.9548Z" fill="white"/>
<path d="M88.9473 27.6908V1.35941H94.3229V13.2451L93.1999 11.9468C94.0099 10.9106 94.9795 10.1061 96.1086 9.53312C97.2378 8.96017 98.459 8.67369 99.7722 8.67369C101.503 8.67369 102.939 9.01502 104.08 9.69769C105.234 10.3804 106.093 11.2703 106.657 12.3674C107.234 13.4645 107.523 14.6348 107.523 15.8783V27.6908H102.147V17.396C102.147 16.2501 101.803 15.3236 101.116 14.6165C100.429 13.8973 99.4838 13.5316 98.281 13.5194C97.471 13.5194 96.7653 13.6901 96.1639 14.0314C95.5748 14.3605 95.1207 14.8421 94.8016 15.476C94.4824 16.0977 94.3229 16.8291 94.3229 17.6703V27.6908H88.9473Z" fill="white"/>
<path d="M120.104 28.2394C118.079 28.2394 116.3 27.831 114.765 27.0143C113.231 26.1975 112.035 25.0577 111.176 23.5948C110.316 22.132 109.887 20.4192 109.887 18.4565C109.887 17.0303 110.132 15.7198 110.623 14.5251C111.126 13.3305 111.826 12.3004 112.722 11.4348C113.63 10.5571 114.692 9.88055 115.907 9.40512C117.134 8.9175 118.478 8.67369 119.939 8.67369C121.546 8.67369 122.97 8.95407 124.21 9.51483C125.462 10.0756 126.499 10.8619 127.321 11.8737C128.143 12.8733 128.714 14.0497 129.033 15.4028C129.364 16.756 129.395 18.2249 129.125 19.8097H114.876C114.876 20.663 115.097 21.4066 115.539 22.0405C115.993 22.6745 116.625 23.1743 117.435 23.54C118.257 23.8935 119.214 24.0703 120.307 24.0703C121.387 24.0703 122.418 23.924 123.4 23.6314C124.381 23.3388 125.308 22.8939 126.18 22.2965L127.965 25.9537C127.376 26.4047 126.64 26.807 125.756 27.1605C124.872 27.5019 123.934 27.764 122.939 27.9468C121.958 28.1419 121.013 28.2394 120.104 28.2394ZM115.189 16.1343H123.97C123.934 15.0493 123.547 14.1899 122.811 13.556C122.086 12.9221 121.086 12.6051 119.81 12.6051C118.533 12.6051 117.472 12.9221 116.625 13.556C115.79 14.1899 115.312 15.0493 115.189 16.1343Z" fill="white"/>
<path d="M141.48 28.2394C139.516 28.2394 137.761 27.8127 136.215 26.9594C134.668 26.106 133.447 24.9419 132.551 23.4668C131.667 21.9918 131.226 20.3217 131.226 18.4565C131.226 17.0546 131.49 15.7624 132.017 14.5799C132.545 13.3853 133.281 12.3491 134.226 11.4714C135.184 10.5815 136.301 9.8927 137.577 9.40509C138.853 8.91747 140.234 8.67366 141.719 8.67366C143.081 8.67366 144.339 8.85651 145.493 9.22223C146.659 9.58794 147.715 10.1365 148.66 10.8679L146.23 14.8542C145.64 14.33 144.984 13.9399 144.26 13.6839C143.548 13.4279 142.793 13.2999 141.995 13.2999C140.878 13.2999 139.915 13.5011 139.105 13.9034C138.307 14.3057 137.687 14.8908 137.246 15.6588C136.816 16.4268 136.601 17.3533 136.601 18.4382C136.601 20.0596 137.08 21.3274 138.037 22.2417C139.007 23.1559 140.326 23.6131 141.995 23.6131C142.891 23.6131 143.732 23.4485 144.517 23.1194C145.315 22.7902 146.021 22.3331 146.635 21.7479L148.899 25.7891C147.88 26.5449 146.72 27.1422 145.42 27.5811C144.119 28.0199 142.805 28.2394 141.48 28.2394Z" fill="white"/>
<path d="M151.498 27.6908V1.35941H156.874V15.8051L163.023 9.22226H169.282L162.765 16.5548L170 27.6908H163.612L158.862 20.0474L156.874 22.0954V27.6908H151.498Z" fill="white"/>
<defs>
<linearGradient id="paint0_linear_1830_5607" x1="51.005" y1="13.3916" x2="79.9866" y2="42.6168" gradientUnits="userSpaceOnUse">
<stop stop-color="#612CFF"/>
<stop offset="1" stop-color="#A8CDF6"/>
</linearGradient>
</defs>
</svg>
